<?xml version="1.0" encoding="utf-8"?>
<!-- Generator: Adobe Illustrator 16.0.0, SVG Export Plug-In . SVG Version: 6.00 Build 0)  -->
<!DOCTYPE svg PUBLIC "-//W3C//DTD SVG 1.1//EN" "http://www.w3.org/Graphics/SVG/1.1/DTD/svg11.dtd">
<svg version="1.1" id="Layer_1" xmlns="http://www.w3.org/2000/svg" xmlns:xlink="http://www.w3.org/1999/xlink" x="0px" y="0px"
	 width="283.46px" height="283.46px" viewBox="0 0 283.46 283.46" enable-background="new 0 0 283.46 283.46" xml:space="preserve">
<path fill="#FFFFFF" d="M96.277,220.013c0,1.107-1.273,1.994-2.879,1.994c-1.827,0.166-3.101-0.721-3.101-1.994
	c0-1.107,1.273-1.992,2.879-1.992C94.837,217.855,96.277,218.74,96.277,220.013z M79.059,217.523
	c-0.387,1.106,0.72,2.38,2.381,2.712c1.439,0.554,3.1,0,3.433-1.106c0.332-1.107-0.72-2.381-2.381-2.879
	C81.052,215.861,79.446,216.416,79.059,217.523z M103.529,216.582c-1.605,0.387-2.713,1.439-2.547,2.713
	c0.167,1.107,1.605,1.826,3.267,1.439c1.605-0.389,2.713-1.439,2.547-2.547C106.63,217.134,105.135,216.416,103.529,216.582z
	 M139.958,4.429C63.169,4.429,4.429,62.727,4.429,139.516c0,61.398,38.644,113.937,93.841,132.429
	c7.086,1.273,9.578-3.101,9.578-6.699c0-3.433-0.166-22.367-0.166-33.993c0,0-38.754,8.305-46.893-16.498
	c0,0-6.312-16.11-15.391-20.263c0,0-12.678-8.692,0.886-8.526c0,0,13.786,1.107,21.37,14.284
	c12.125,21.369,32.443,15.225,40.36,11.57c1.273-8.857,4.872-15.004,8.858-18.657c-30.948-3.433-62.173-7.917-62.173-61.177
	c0-15.225,4.208-22.865,13.066-32.609c-1.439-3.599-6.146-18.436,1.439-37.591c11.571-3.599,38.201,14.948,38.201,14.948
	c11.073-3.1,22.976-4.706,34.768-4.706s23.696,1.605,34.768,4.706c0,0,26.63-18.602,38.201-14.948
	c7.584,19.211,2.879,33.993,1.439,37.591c8.857,9.799,14.283,17.439,14.283,32.609c0,53.426-32.609,57.688-63.557,61.177
	c5.094,4.374,9.412,12.679,9.412,25.688c0,18.657-0.166,41.744-0.166,46.283c0,3.6,2.546,7.973,9.577,6.699
	c55.363-18.381,92.899-70.92,92.899-132.318C279.031,62.727,216.748,4.429,139.958,4.429z M58.242,195.376
	c-0.72,0.555-0.554,1.828,0.388,2.879c0.886,0.887,2.159,1.273,2.879,0.555c0.72-0.555,0.553-1.828-0.388-2.879
	C60.235,195.044,58.962,194.658,58.242,195.376z M52.263,190.892c-0.387,0.721,0.167,1.605,1.273,2.16
	c0.886,0.553,1.993,0.387,2.381-0.389c0.387-0.719-0.166-1.605-1.273-2.158C53.536,190.173,52.65,190.339,52.263,190.892z
	 M70.201,210.602c-0.886,0.72-0.554,2.38,0.72,3.433c1.273,1.273,2.879,1.439,3.599,0.553c0.72-0.719,0.388-2.38-0.72-3.432
	C72.581,209.882,70.92,209.716,70.201,210.602z M63.889,202.463c-0.886,0.554-0.886,1.993,0,3.267s2.381,1.827,3.101,1.273
	c0.886-0.72,0.886-2.159,0-3.433C66.214,202.297,64.775,201.744,63.889,202.463L63.889,202.463z"/>
</svg>
