<?xml version="1.0" encoding="utf-8"?>
<!-- Generator: Adobe Illustrator 16.0.0, SVG Export Plug-In . SVG Version: 6.00 Build 0)  -->
<!DOCTYPE svg PUBLIC "-//W3C//DTD SVG 1.1//EN" "http://www.w3.org/Graphics/SVG/1.1/DTD/svg11.dtd">
<svg version="1.1" id="Layer_1" xmlns="http://www.w3.org/2000/svg" xmlns:xlink="http://www.w3.org/1999/xlink" x="0px" y="0px"
	 width="283.46px" height="283.46px" viewBox="0 0 283.46 283.46" enable-background="new 0 0 283.46 283.46" xml:space="preserve">
<path fill="#FFFFFF" d="M68.429,216.636c7.142-5.204,16.387-6.533,24.692-3.543c14.671,5.314,31.114,8.359,48.609,8.359
	c69.038,0,115.156-44.566,115.156-88.581S210.768,44.291,141.73,44.291S26.574,88.858,26.574,132.872
	c0,17.715,6.865,34.768,19.765,49.383c4.761,5.371,7.087,12.457,6.533,19.654c-0.775,10.021-3.156,19.211-6.256,27.35
	c9.412-4.373,17.218-9.246,21.813-12.567V216.636z M11.737,239.114c0.997-1.495,1.938-2.989,2.824-4.484
	c5.536-9.19,10.796-21.259,11.848-34.823C9.799,180.927,0,157.841,0,132.872C0,69.259,63.446,17.716,141.73,17.716
	c78.283,0,141.73,51.543,141.73,115.156c0,63.612-63.447,115.155-141.73,115.155c-20.54,0-40.028-3.543-57.633-9.909
	c-6.588,4.816-17.329,11.405-30.062,16.94c-8.36,3.654-17.882,6.977-27.737,8.914c-0.443,0.111-0.886,0.166-1.329,0.277
	c-2.436,0.442-4.816,0.83-7.308,1.051c-0.11,0-0.276,0.056-0.387,0.056c-2.824,0.276-5.647,0.443-8.471,0.443
	c-3.599,0-6.81-2.159-8.194-5.481c-1.384-3.321-0.609-7.086,1.882-9.633c2.27-2.325,4.318-4.816,6.256-7.475
	c0.941-1.273,1.827-2.547,2.657-3.82c0.055-0.109,0.111-0.166,0.166-0.276H11.737z"/>
</svg>
