<?xml version="1.0" encoding="utf-8"?>
<!-- Generator: Adobe Illustrator 16.0.0, SVG Export Plug-In . SVG Version: 6.00 Build 0)  -->
<!DOCTYPE svg PUBLIC "-//W3C//DTD SVG 1.1//EN" "http://www.w3.org/Graphics/SVG/1.1/DTD/svg11.dtd">
<svg version="1.1" id="Layer_1" xmlns="http://www.w3.org/2000/svg" xmlns:xlink="http://www.w3.org/1999/xlink" x="0px" y="0px"
	 width="283.46px" height="283.46px" viewBox="0 0 283.46 283.46" enable-background="new 0 0 283.46 283.46" xml:space="preserve">
<path fill="#FFFFFF" d="M35.433,62.007c-4.872,0-8.858,3.986-8.858,8.858V83.1l95.502,78.395c11.46,9.411,27.903,9.411,39.363,0
	L256.886,83.1V70.865c0-4.872-3.986-8.858-8.859-8.858H35.433z M26.574,117.481v95.114c0,4.871,3.986,8.857,8.858,8.857h212.594
	c4.873,0,8.859-3.986,8.859-8.857v-95.114l-78.617,64.554c-21.259,17.439-51.875,17.439-73.079,0L26.574,117.481z M0,70.865
	c0-19.543,15.889-35.432,35.433-35.432h212.594c19.544,0,35.434,15.889,35.434,35.432v141.73c0,19.543-15.89,35.432-35.434,35.432
	H35.433C15.889,248.027,0,232.138,0,212.595V70.865z"/>
</svg>
